<?xml version="1.0" standalone="no"?>
<svg xmlns:xlink="http://www.w3.org/1999/xlink" id="wave" style="transform:rotate(0deg); transition: 0.3s" viewBox="0 0 1440 490" version="1.1" xmlns="http://www.w3.org/2000/svg"><defs><linearGradient id="sw-gradient-0" x1="0" x2="0" y1="1" y2="0"><stop stop-color="rgba(54.059, 63.639, 105.15, 1)" offset="0%"/><stop stop-color="rgba(41, 50, 89, 0.15)" offset="100%"/></linearGradient></defs><path style="transform:translate(0, 0px); opacity:1" fill="url(#sw-gradient-0)" d="M0,245L40,269.5C80,294,160,343,240,359.3C320,376,400,359,480,310.3C560,261,640,180,720,171.5C800,163,880,229,960,245C1040,261,1120,229,1200,253.2C1280,278,1360,359,1440,383.8C1520,408,1600,376,1680,375.7C1760,376,1840,408,1920,408.3C2000,408,2080,376,2160,359.3C2240,343,2320,343,2400,326.7C2480,310,2560,278,2640,277.7C2720,278,2800,310,2880,302.2C2960,294,3040,245,3120,245C3200,245,3280,294,3360,285.8C3440,278,3520,212,3600,204.2C3680,196,3760,245,3840,269.5C3920,294,4000,294,4080,269.5C4160,245,4240,196,4320,163.3C4400,131,4480,114,4560,163.3C4640,212,4720,327,4800,375.7C4880,425,4960,408,5040,400.2C5120,392,5200,392,5280,367.5C5360,343,5440,294,5520,236.8C5600,180,5680,114,5720,81.7L5760,49L5760,490L5720,490C5680,490,5600,490,5520,490C5440,490,5360,490,5280,490C5200,490,5120,490,5040,490C4960,490,4880,490,4800,490C4720,490,4640,490,4560,490C4480,490,4400,490,4320,490C4240,490,4160,490,4080,490C4000,490,3920,490,3840,490C3760,490,3680,490,3600,490C3520,490,3440,490,3360,490C3280,490,3200,490,3120,490C3040,490,2960,490,2880,490C2800,490,2720,490,2640,490C2560,490,2480,490,2400,490C2320,490,2240,490,2160,490C2080,490,2000,490,1920,490C1840,490,1760,490,1680,490C1600,490,1520,490,1440,490C1360,490,1280,490,1200,490C1120,490,1040,490,960,490C880,490,800,490,720,490C640,490,560,490,480,490C400,490,320,490,240,490C160,490,80,490,40,490L0,490Z"/><defs><linearGradient id="sw-gradient-1" x1="0" x2="0" y1="1" y2="0"><stop stop-color="rgba(37.332, 46.632, 86.935, 1)" offset="0%"/><stop stop-color="rgba(41, 50, 89, 0.07)" offset="100%"/></linearGradient></defs><path style="transform:translate(0, 50px); opacity:0.9" fill="url(#sw-gradient-1)" d="M0,196L40,220.5C80,245,160,294,240,334.8C320,376,400,408,480,424.7C560,441,640,441,720,375.7C800,310,880,180,960,106.2C1040,33,1120,16,1200,81.7C1280,147,1360,294,1440,334.8C1520,376,1600,310,1680,245C1760,180,1840,114,1920,89.8C2000,65,2080,82,2160,73.5C2240,65,2320,33,2400,57.2C2480,82,2560,163,2640,196C2720,229,2800,212,2880,236.8C2960,261,3040,327,3120,359.3C3200,392,3280,392,3360,400.2C3440,408,3520,425,3600,416.5C3680,408,3760,376,3840,367.5C3920,359,4000,376,4080,343C4160,310,4240,229,4320,236.8C4400,245,4480,343,4560,326.7C4640,310,4720,180,4800,147C4880,114,4960,180,5040,245C5120,310,5200,376,5280,343C5360,310,5440,180,5520,147C5600,114,5680,180,5720,212.3L5760,245L5760,490L5720,490C5680,490,5600,490,5520,490C5440,490,5360,490,5280,490C5200,490,5120,490,5040,490C4960,490,4880,490,4800,490C4720,490,4640,490,4560,490C4480,490,4400,490,4320,490C4240,490,4160,490,4080,490C4000,490,3920,490,3840,490C3760,490,3680,490,3600,490C3520,490,3440,490,3360,490C3280,490,3200,490,3120,490C3040,490,2960,490,2880,490C2800,490,2720,490,2640,490C2560,490,2480,490,2400,490C2320,490,2240,490,2160,490C2080,490,2000,490,1920,490C1840,490,1760,490,1680,490C1600,490,1520,490,1440,490C1360,490,1280,490,1200,490C1120,490,1040,490,960,490C880,490,800,490,720,490C640,490,560,490,480,490C400,490,320,490,240,490C160,490,80,490,40,490L0,490Z"/></svg>